<?xml version="1.0"?>
<svg xmlns="http://www.w3.org/2000/svg" xmlns:xlink="http://www.w3.org/1999/xlink" version="1.1" id="Capa_1" x="0px" y="0px" viewBox="0 0 480 480" style="enable-background:new 0 0 480 480;" xml:space="preserve" width="512px" height="512px" class=""><g><g>
	<g>
		<path d="M472,112c4.418,0,8-3.582,8-8V8c0-4.418-3.582-8-8-8H8C3.582,0,0,3.582,0,8v96c0,4.418,3.582,8,8,8h8v80H8    c-4.418,0-8,3.582-8,8v48c0,4.418,3.582,8,8,8h8v216c0,4.418,3.582,8,8,8h432c4.418,0,8-3.582,8-8V256h8c4.418,0,8-3.582,8-8v-48    c0-4.418-3.582-8-8-8h-8v-80H472z M16,240v-32h128v32H16z M128,464H32V256h96V464z M232,464h-56V288h56V464z M304,464h-56V288h56    V464z M336,464h-16V280c0-4.418-3.582-8-8-8H168c-4.418,0-8,3.582-8,8v184h-16V256h8c4.418,0,8-3.582,8-8v-48c0-4.418-3.582-8-8-8    H32v-80h416v80H328c-4.418,0-8,3.582-8,8v48c0,4.418,3.582,8,8,8h8V464z M448,464h-96V256h96V464z M464,240H336v-32h128V240z     M16,96V16h448v80H16z" data-original="#000000" class="active-path" data-old_color="#000000" fill="#22197F"/>
	</g>
</g><g>
	<g>
		<path d="M296,160H184c-4.418,0-8,3.582-8,8v48c0,4.418,3.582,8,8,8h112c4.418,0,8-3.582,8-8v-48C304,163.582,300.418,160,296,160z     M288,208h-96v-32h96V208z" data-original="#000000" class="active-path" data-old_color="#000000" fill="#22197F"/>
	</g>
</g><g>
	<g>
		<polygon points="248,48 248,24 232,24 232,48 208,48 208,64 232,64 232,88 248,88 248,64 272,64 272,48   " data-original="#000000" class="active-path" data-old_color="#000000" fill="#22197F"/>
	</g>
</g><g>
	<g>
		<path d="M96,272H64c-4.418,0-8,3.582-8,8v32c0,4.418,3.582,8,8,8h32c4.418,0,8-3.582,8-8v-32C104,275.582,100.418,272,96,272z     M88,304H72v-16h16V304z" data-original="#000000" class="active-path" data-old_color="#000000" fill="#22197F"/>
	</g>
</g><g>
	<g>
		<path d="M96,336H64c-4.418,0-8,3.582-8,8v32c0,4.418,3.582,8,8,8h32c4.418,0,8-3.582,8-8v-32C104,339.582,100.418,336,96,336z     M88,368H72v-16h16V368z" data-original="#000000" class="active-path" data-old_color="#000000" fill="#22197F"/>
	</g>
</g><g>
	<g>
		<path d="M96,400H64c-4.418,0-8,3.582-8,8v32c0,4.418,3.582,8,8,8h32c4.418,0,8-3.582,8-8v-32C104,403.582,100.418,400,96,400z     M88,432H72v-16h16V432z" data-original="#000000" class="active-path" data-old_color="#000000" fill="#22197F"/>
	</g>
</g><g>
	<g>
		<path d="M416,272h-32c-4.418,0-8,3.582-8,8v32c0,4.418,3.582,8,8,8h32c4.418,0,8-3.582,8-8v-32C424,275.582,420.418,272,416,272z     M408,304h-16v-16h16V304z" data-original="#000000" class="active-path" data-old_color="#000000" fill="#22197F"/>
	</g>
</g><g>
	<g>
		<path d="M416,336h-32c-4.418,0-8,3.582-8,8v32c0,4.418,3.582,8,8,8h32c4.418,0,8-3.582,8-8v-32C424,339.582,420.418,336,416,336z     M408,368h-16v-16h16V368z" data-original="#000000" class="active-path" data-old_color="#000000" fill="#22197F"/>
	</g>
</g><g>
	<g>
		<path d="M416,400h-32c-4.418,0-8,3.582-8,8v32c0,4.418,3.582,8,8,8h32c4.418,0,8-3.582,8-8v-32C424,403.582,420.418,400,416,400z     M408,432h-16v-16h16V432z" data-original="#000000" class="active-path" data-old_color="#000000" fill="#22197F"/>
	</g>
</g></g> </svg>
