<svg enable-background="new 0 0 60 60" height="512" viewBox="0 0 60 60" width="512" xmlns="http://www.w3.org/2000/svg"><path d="m45.375 2.996h-10.375-20-11.375c-1.45 0-2.625 1.175-2.625 2.625v50.75c0 1.45 1.175 2.625 2.625 2.625h41.75c1.45 0 2.625-1.175 2.625-2.625v-50.75c0-1.45-1.175-2.625-2.625-2.625z" fill="#bf5a45"/><path d="m35 6.996h-20-8.987c-.559 0-1.013.454-1.013 1.014v45.973c0 .56.454 1.013 1.013 1.013h36.973c.56 0 1.013-.454 1.013-1.013v-45.973c0-.56-.454-1.013-1.013-1.013h-7.986z" fill="#f2ecbf"/><path d="m59 51.996-3 4-3-4v-47.469c0-.846.686-1.531 1.531-1.531h2.938c.845 0 1.531.686 1.531 1.531z" fill="#366db6"/><path d="m59 8.996h-6v-4.469c0-.846.686-1.531 1.531-1.531h2.938c.845 0 1.531.686 1.531 1.531z" fill="#1f436d"/><path d="m52.97 51.996 2.116 2.822c.442.589 1.325.589 1.767 0l2.116-2.822v-6h-6v6z" fill="#1f436d"/><path d="m53 21.996h6v8h-6z" fill="#1f436d"/><circle cx="25" cy="23.996" fill="#dd352e" r="10"/><path d="m29.698 21.996h-2.698v-2.698c0-.719-.583-1.302-1.302-1.302h-1.396c-.719 0-1.302.583-1.302 1.302v2.698h-2.698c-.719 0-1.302.583-1.302 1.302v1.396c0 .719.583 1.302 1.302 1.302h2.698v2.698c0 .719.583 1.302 1.302 1.302h1.396c.719 0 1.302-.583 1.302-1.302v-2.698h2.698c.719 0 1.302-.583 1.302-1.302v-1.396c0-.719-.583-1.302-1.302-1.302z" fill="#fff"/><path d="m15 1.996h20v8h-20z" fill="#7383bf"/><g fill="#4d007e"><path d="m35 10h-20c-.552 0-1-.447-1-1v-8c0-.553.448-1 1-1h20c.552 0 1 .447 1 1v8c0 .553-.448 1-1 1zm-19-2h18v-6h-18z"/><path d="m44 56h-39c-.552 0-1-.447-1-1v-48c0-.553.448-1 1-1h10c.552 0 1 .447 1 1v1h18v-1c0-.553.448-1 1-1h9c.552 0 1 .447 1 1v48c0 .553-.448 1-1 1zm-38-2h37v-46h-7v1c0 .553-.448 1-1 1h-20c-.552 0-1-.447-1-1v-1h-8z"/><path d="m45.375 60h-41.75c-1.999 0-3.625-1.626-3.625-3.625v-50.75c0-1.999 1.626-3.625 3.625-3.625h11.375c.552 0 1 .447 1 1v5h18v-5c0-.553.448-1 1-1h10.375c1.999 0 3.625 1.626 3.625 3.625v50.75c0 1.999-1.626 3.625-3.625 3.625zm-41.75-56c-.896 0-1.625.729-1.625 1.625v50.75c0 .896.729 1.625 1.625 1.625h41.75c.896 0 1.625-.729 1.625-1.625v-50.75c0-.896-.729-1.625-1.625-1.625h-9.375v5c0 .553-.448 1-1 1h-20c-.552 0-1-.447-1-1v-5z"/><path d="m56 57c-.315 0-.611-.148-.8-.4l-3-4c-.13-.173-.2-.383-.2-.6v-47.469c0-1.395 1.135-2.531 2.531-2.531h2.938c1.396 0 2.531 1.136 2.531 2.531v47.469c0 .217-.07.427-.2.6l-3 4c-.189.252-.485.4-.8.4zm-2-5.333 2 2.666 2-2.666v-47.136c0-.293-.238-.531-.531-.531h-2.938c-.293 0-.531.238-.531.531zm5 .333h.01z"/><path d="m55.97 60c-.552 0-1-.447-1-1v-3c0-.553.448-1 1-1s1 .447 1 1v3c0 .553-.448 1-1 1z"/><path d="m59 10h-6c-.552 0-1-.447-1-1v-4.469c0-1.395 1.135-2.531 2.531-2.531h2.938c1.396 0 2.531 1.136 2.531 2.531v4.469c0 .553-.448 1-1 1zm-5-2h4v-3.469c0-.293-.238-.531-.531-.531h-2.938c-.293 0-.531.238-.531.531z"/><path d="m55.97 57c-.315 0-.611-.148-.8-.4l-3-4c-.13-.173-.2-.383-.2-.6v-6c0-.553.448-1 1-1h6c.552 0 1 .447 1 1v6c0 .217-.07.427-.2.6l-3 4c-.189.252-.485.4-.8.4zm-2-5.333 2 2.666 2-2.666v-4.667h-4z"/><path d="m59 31h-6c-.552 0-1-.447-1-1v-8c0-.553.448-1 1-1h6c.552 0 1 .447 1 1v8c0 .553-.448 1-1 1zm-5-2h4v-6h-4z"/><path d="m25 35c-6.065 0-11-4.935-11-11s4.935-11 11-11 11 4.935 11 11-4.935 11-11 11zm0-20c-4.963 0-9 4.037-9 9s4.037 9 9 9 9-4.037 9-9-4.037-9-9-9z"/><path d="m27 31h-4c-.552 0-1-.447-1-1v-3h-3c-.552 0-1-.447-1-1v-4c0-.553.448-1 1-1h3v-3c0-.553.448-1 1-1h4c.552 0 1 .447 1 1v3h3c.552 0 1 .447 1 1v4c0 .553-.448 1-1 1h-3v3c0 .553-.448 1-1 1zm-3-2h2v-3c0-.553.448-1 1-1h3v-2h-3c-.552 0-1-.447-1-1v-3h-2v3c0 .553-.448 1-1 1h-3v2h3c.552 0 1 .447 1 1z"/><path d="m34 46h-12c-.552 0-1-.447-1-1s.448-1 1-1h12c.552 0 1 .447 1 1s-.448 1-1 1z"/><path d="m18 46h-9c-.552 0-1-.447-1-1s.448-1 1-1h9c.552 0 1 .447 1 1s-.448 1-1 1z"/><path d="m40 46h-2c-.552 0-1-.447-1-1s.448-1 1-1h2c.552 0 1 .447 1 1s-.448 1-1 1z"/><path d="m27 41h-12c-.552 0-1-.447-1-1s.448-1 1-1h12c.552 0 1 .447 1 1s-.448 1-1 1z"/><path d="m40 41h-9c-.552 0-1-.447-1-1s.448-1 1-1h9c.552 0 1 .447 1 1s-.448 1-1 1z"/><path d="m11 41h-2c-.552 0-1-.447-1-1s.448-1 1-1h2c.552 0 1 .447 1 1s-.448 1-1 1z"/><path d="m27 51h-12c-.552 0-1-.447-1-1s.448-1 1-1h12c.552 0 1 .447 1 1s-.448 1-1 1z"/><path d="m40 51h-9c-.552 0-1-.447-1-1s.448-1 1-1h9c.552 0 1 .447 1 1s-.448 1-1 1z"/><path d="m11 51h-2c-.552 0-1-.447-1-1s.448-1 1-1h2c.552 0 1 .447 1 1s-.448 1-1 1z"/></g></svg>