<svg enable-background="new 0 0 48 60" height="512" viewBox="0 0 48 60" width="512" xmlns="http://www.w3.org/2000/svg"><path d="m43.542 3.001h-2.542-10-23v56h35.542c1.91 0 3.458-1.548 3.458-3.458v-49.084c0-1.91-1.548-3.458-3.458-3.458z" fill="#dd352e"/><path d="m9 59.001h-4.542c-1.91 0-3.458-1.548-3.458-3.459v-49.083c0-1.91 1.548-3.458 3.458-3.458h4.542z" fill="#b02721"/><path d="m41 15.001-5-4-5 4v-14h10z" fill="#366db6"/><path d="m37.996 55.001h-19.992c-1.659 0-3.004-1.345-3.004-3.004v-5.992c0-1.659 1.345-3.004 3.004-3.004h19.992c1.659 0 3.004 1.345 3.004 3.004v5.992c0 1.659-1.345 3.004-3.004 3.004z" fill="#f7e6a1"/><path d="m37 26.001h-6v-6h-6v6h-6v6h6v6h6v-6h6z" fill="#fff"/><g fill="#4d007e"><path d="m9 60h-4.542c-2.458 0-4.458-2-4.458-4.458v-49.084c0-2.458 2-4.458 4.458-4.458h4.542c.552 0 1 .448 1 1v56c0 .552-.448 1-1 1zm-4.542-56c-1.355 0-2.458 1.103-2.458 2.458v49.083c0 1.356 1.103 2.459 2.458 2.459h3.542v-54z"/><path d="m41 16c-.223 0-.444-.075-.625-.219l-4.375-3.5-4.375 3.5c-.3.24-.712.287-1.058.121-.347-.167-.567-.518-.567-.902v-14c0-.552.448-1 1-1h10c.552 0 1 .448 1 1v14c0 .384-.22.735-.567.901-.138.066-.286.099-.433.099zm-5-6c.221 0 .442.073.625.219l3.375 2.7v-10.919h-8v10.919l3.375-2.7c.183-.146.404-.219.625-.219z"/><path d="m37.996 55h-19.992c-2.208 0-4.004-1.796-4.004-4.004v-5.992c0-2.208 1.796-4.004 4.004-4.004h19.992c2.208 0 4.004 1.796 4.004 4.004v5.992c0 2.208-1.796 4.004-4.004 4.004zm-19.992-12c-1.105 0-2.004.899-2.004 2.004v5.992c0 1.105.899 2.004 2.004 2.004h19.992c1.105 0 2.004-.899 2.004-2.004v-5.992c0-1.105-.899-2.004-2.004-2.004z"/><path d="m29 51h-10c-.552 0-1-.448-1-1s.448-1 1-1h10c.552 0 1 .448 1 1s-.448 1-1 1z"/><path d="m37 51h-4c-.552 0-1-.448-1-1s.448-1 1-1h4c.552 0 1 .448 1 1s-.448 1-1 1z"/><path d="m37 47h-9c-.552 0-1-.448-1-1s.448-1 1-1h9c.552 0 1 .448 1 1s-.448 1-1 1z"/><path d="m24 47h-5c-.552 0-1-.448-1-1s.448-1 1-1h5c.552 0 1 .448 1 1s-.448 1-1 1z"/><path d="m5 56c-.552 0-1-.448-1-1v-48c0-.552.448-1 1-1s1 .448 1 1v48c0 .552-.448 1-1 1z"/><path d="m43.542 60h-34.542c-.552 0-1-.448-1-1v-56c0-.552.448-1 1-1h22c.552 0 1 .448 1 1v9.919l3.375-2.7c.365-.292.884-.292 1.249 0l3.375 2.7v-9.919c0-.552.448-1 1-1h2.542c2.459 0 4.459 2 4.459 4.458v49.083c0 2.459-2 4.459-4.458 4.459zm-33.542-2h33.542c1.355 0 2.458-1.103 2.458-2.458v-49.084c0-1.355-1.103-2.458-2.458-2.458h-1.542v11c0 .384-.22.735-.567.901-.346.165-.758.119-1.058-.121l-4.375-3.499-4.375 3.5c-.3.24-.712.287-1.058.121-.347-.167-.567-.518-.567-.902v-11h-20z"/><path d="m31 38h-6c-.552 0-1-.448-1-1v-5h-5c-.552 0-1-.448-1-1v-6c0-.552.448-1 1-1h5v-5c0-.552.448-1 1-1h6c.552 0 1 .448 1 1v5h5c.552 0 1 .448 1 1v6c0 .552-.448 1-1 1h-5v5c0 .552-.448 1-1 1zm-5-2h4v-5c0-.552.448-1 1-1h5v-4h-5c-.552 0-1-.448-1-1v-5h-4v5c0 .552-.448 1-1 1h-5v4h5c.552 0 1 .448 1 1z"/><path d="m36 12c-.552 0-1-.448-1-1v-4c0-.552.448-1 1-1s1 .448 1 1v4c0 .552-.448 1-1 1z"/></g></svg>