<svg enable-background="new 0 0 60 47" height="512" viewBox="0 0 60 47" width="512" xmlns="http://www.w3.org/2000/svg"><path d="m51 11v8h-4v-8h-34v8h-4v-8h-5.999c-1.105 0-2.001.896-2.001 2.001v27.997c0 1.106.896 2.002 2.001 2.002h5.999v-20h4v20h34v-20h4v20h5.999c1.105 0 2.001-.896 2.001-2.001v-27.998c0-1.105-.896-2.001-2.001-2.001z" fill="#e7eced"/><circle cx="30" cy="27" fill="#dd352e" r="10"/><path d="m36 25h-4v-4h-4v4h-4v4h4v4h4v-4h4z" fill="#fff"/><path d="m47 22h4v24h-4z" fill="#afb6bb"/><path d="m47 8h4v12h-4z" fill="#afb6bb"/><path d="m36 5h-12c-1.105 0-2-.895-2-2 0-1.105.895-2 2-2h12c1.105 0 2 .895 2 2 0 1.105-.895 2-2 2z" fill="#7383bf"/><path d="m45 19h8v4h-8z" fill="#25ae88" transform="matrix(-1 0 0 -1 98 42)"/><path d="m9 22h4v24h-4z" fill="#afb6bb"/><path d="m9 8h4v12h-4z" fill="#afb6bb"/><path d="m7 19h8v4h-8z" fill="#25ae88" transform="matrix(-1 0 0 -1 22 42)"/><g fill="#4d007e"><path d="m30 38c-6.065 0-11-4.935-11-11s4.935-11 11-11 11 4.935 11 11-4.935 11-11 11zm0-20c-4.962 0-9 4.038-9 9s4.038 9 9 9 9-4.038 9-9-4.038-9-9-9z"/><path d="m32 34h-4c-.552 0-1-.448-1-1v-3h-3c-.552 0-1-.448-1-1v-4c0-.552.448-1 1-1h3v-3c0-.552.448-1 1-1h4c.552 0 1 .448 1 1v3h3c.552 0 1 .448 1 1v4c0 .552-.448 1-1 1h-3v3c0 .552-.448 1-1 1zm-3-2h2v-3c0-.552.448-1 1-1h3v-2h-3c-.552 0-1-.448-1-1v-3h-2v3c0 .552-.448 1-1 1h-3v2h3c.552 0 1 .448 1 1z"/><path d="m15 24h-8c-.552 0-1-.448-1-1v-4c0-.552.448-1 1-1h8c.552 0 1 .448 1 1v4c0 .552-.448 1-1 1zm-7-2h6v-2h-6z"/><path d="m13 47h-4c-.552 0-1-.448-1-1v-23c0-.552.448-1 1-1h4c.552 0 1 .448 1 1v23c0 .552-.448 1-1 1zm-3-2h2v-21h-2z"/><path d="m13 20h-4c-.552 0-1-.448-1-1v-11c0-.552.448-1 1-1h4c.552 0 1 .448 1 1v11c0 .552-.448 1-1 1zm-3-2h2v-9h-2z"/><path d="m53 24h-8c-.552 0-1-.448-1-1v-4c0-.552.448-1 1-1h8c.552 0 1 .448 1 1v4c0 .552-.448 1-1 1zm-7-2h6v-2h-6z"/><path d="m51 47h-4c-.552 0-1-.448-1-1v-23c0-.552.448-1 1-1h4c.552 0 1 .448 1 1v23c0 .552-.448 1-1 1zm-3-2h2v-21h-2z"/><path d="m51 20h-4c-.552 0-1-.448-1-1v-11c0-.552.448-1 1-1h4c.552 0 1 .448 1 1v11c0 .552-.448 1-1 1zm-3-2h2v-9h-2z"/><path d="m56.999 44h-5.999c-.552 0-1-.448-1-1v-19h-2v19c0 .552-.448 1-1 1h-34c-.552 0-1-.448-1-1v-19h-2v19c0 .552-.448 1-1 1h-5.999c-1.654 0-3.001-1.347-3.001-3.001v-27.998c0-1.654 1.347-3.001 3.001-3.001h5.999c.552 0 1 .448 1 1v7h2v-7c0-.552.448-1 1-1h34c.552 0 1 .448 1 1v7h2v-7c0-.552.448-1 1-1h5.999c1.654 0 3.001 1.347 3.001 3.001v27.997c0 1.655-1.347 3.002-3.001 3.002zm-4.999-2h4.999c.552 0 1.001-.449 1.001-1.001v-27.998c0-.552-.449-1.001-1.001-1.001h-4.999v7c0 .552-.448 1-1 1h-4c-.552 0-1-.448-1-1v-7h-32v7c0 .552-.448 1-1 1h-4c-.552 0-1-.448-1-1v-7h-4.999c-.552 0-1.001.449-1.001 1.001v27.997c0 .553.449 1.002 1.001 1.002h4.999v-19c0-.552.448-1 1-1h4c.552 0 1 .448 1 1v19h32v-19c0-.552.448-1 1-1h4c.552 0 1 .448 1 1z"/><path d="m14 12c-.552 0-1-.448-1-1s.448-1 1-1c1.654 0 3-1.346 3-3 0-2.757 2.243-5 5-5 .552 0 1 .448 1 1s-.448 1-1 1c-1.654 0-3 1.346-3 3 0 2.757-2.243 5-5 5z"/><path d="m36 6h-12c-1.654 0-3-1.346-3-3s1.346-3 3-3h12c1.654 0 3 1.346 3 3s-1.346 3-3 3zm-12-4c-.551 0-1 .449-1 1s.449 1 1 1h12c.551 0 1-.449 1-1s-.449-1-1-1z"/><path d="m46 12c-2.757 0-5-2.243-5-5 0-1.654-1.346-3-3-3-.552 0-1-.448-1-1s.448-1 1-1c2.757 0 5 2.243 5 5 0 1.654 1.346 3 3 3 .552 0 1 .448 1 1s-.448 1-1 1z"/></g></svg>