<?xml version="1.0" encoding="iso-8859-1"?>
<!-- Generator: Adobe Illustrator 19.0.0, SVG Export Plug-In . SVG Version: 6.00 Build 0)  -->
<svg version="1.1" id="Capa_1" xmlns="http://www.w3.org/2000/svg" xmlns:xlink="http://www.w3.org/1999/xlink" x="0px" y="0px"
	 viewBox="0 0 512 512" style="enable-background:new 0 0 512 512;" xml:space="preserve">
<path style="fill:#6C4127;" d="M490.539,51.2h-63.872H238.934h-63.872c-7.142,0-12.928,5.786-12.928,12.928v80.939v332.8h328.405
	c7.142,0,12.928-5.786,12.928-12.928V64.128C503.467,56.986,497.681,51.2,490.539,51.2z"/>
<path style="fill:#F2ECBF;" d="M426.667,85.333V102.4H238.934V85.333h-42.667v59.733h30.78c6.562,0,11.887,5.325,11.887,11.887
	V179.2h19.84c3.183,0,5.76,2.577,5.76,5.76v56.747c0,3.183-2.577,5.76-5.76,5.76h-11.307V281.6v42.667V358.4v85.333h221.867v-358.4
	C469.333,85.333,426.667,85.333,426.667,85.333z"/>
<path style="fill:#E6BC00;" d="M238.934,187.733h-204.8v-30.78c0-6.562,5.325-11.887,11.887-11.887h181.026
	c6.562,0,11.887,5.325,11.887,11.887L238.934,187.733L238.934,187.733z"/>
<path style="fill:#D53100;" d="M235.581,503.467H37.488c-6.562,0-11.887-5.325-11.887-11.887V238.933h221.867V491.58
	C247.467,498.142,242.143,503.467,235.581,503.467z"/>
<g>
	<path style="fill:#E0E0E0;" d="M65.861,469.333h-40.26V281.6h40.26c10.752,0,19.473,8.721,19.473,19.473V449.86
		C85.334,460.612,76.613,469.333,65.861,469.333z"/>
	<path style="fill:#E0E0E0;" d="M247.467,469.333h-99.994c-10.752,0-19.473-8.721-19.473-19.473V301.073
		c0-10.752,8.721-19.473,19.473-19.473h99.994V469.333z"/>
</g>
<rect x="162.131" y="324.27" style="fill:#7B7D77;" width="85.33" height="34.13"/>
<path style="fill:#AFB6BB;" d="M383.241,34.133c-9.139,0-17.681-4.386-23.1-11.742c-6.187-8.397-16.102-13.858-27.341-13.858
	s-21.154,5.461-27.341,13.858c-5.419,7.356-13.961,11.742-23.1,11.742h-21.837c-11.921,0-21.589,9.668-21.589,21.589V102.4h187.733
	V55.723c0-11.921-9.668-21.589-21.589-21.589L383.241,34.133L383.241,34.133z"/>
<circle style="fill:#FFFFFF;" cx="332.8" cy="59.733" r="17.07"/>
<path style="fill:#F38600;" d="M258.773,247.467H14.294c-3.183,0-5.76-2.577-5.76-5.76V184.96c0-3.183,2.577-5.76,5.76-5.76h244.48
	c3.183,0,5.76,2.577,5.76,5.76v56.747C264.533,244.89,261.956,247.467,258.773,247.467z"/>
<g>
	<path style="fill:#4D007E;" d="M258.773,256H14.294c-7.884,0-14.293-6.409-14.293-14.293V184.96
		c0-7.885,6.409-14.293,14.293-14.293h244.48c7.885,0,14.293,6.409,14.293,14.293v56.747C273.067,249.591,266.658,256,258.773,256z
		 M17.068,238.933H256v-51.2H17.068V238.933z"/>
	<path style="fill:#4D007E;" d="M238.934,187.733h-204.8c-4.71,0-8.533-3.814-8.533-8.533v-22.238
		c0-11.264,9.156-20.429,20.42-20.429h181.026c11.264,0,20.42,9.165,20.42,20.429V179.2
		C247.467,183.919,243.645,187.733,238.934,187.733z M42.668,170.667H230.4v-13.705c0-1.852-1.502-3.362-3.354-3.362H46.021
		c-1.852,0-3.354,1.51-3.354,3.362L42.668,170.667L42.668,170.667z"/>
	<path style="fill:#4D007E;" d="M235.581,512H37.488c-11.264,0-20.42-9.165-20.42-20.429V247.467c0-4.719,3.823-8.533,8.533-8.533
		h221.867c4.71,0,8.533,3.814,8.533,8.533v244.105C256,502.835,246.844,512,235.581,512z M34.134,256v235.571
		c0,1.852,1.502,3.362,3.354,3.362h198.093c1.852,0,3.354-1.51,3.354-3.362V256H34.134z"/>
	<path style="fill:#4D007E;" d="M65.861,477.867h-40.26c-4.71,0-8.533-3.814-8.533-8.533V281.6c0-4.719,3.823-8.533,8.533-8.533
		h40.26c15.445,0,28.006,12.57,28.006,28.006V449.86C93.868,465.297,81.307,477.867,65.861,477.867z M34.134,460.8h31.727
		c6.033,0,10.94-4.907,10.94-10.94V301.073c0-6.033-4.907-10.94-10.94-10.94H34.134V460.8z"/>
	<path style="fill:#4D007E;" d="M247.467,477.867h-99.994c-15.445,0-28.006-12.57-28.006-28.006V301.073
		c0-15.437,12.561-28.006,28.006-28.006h99.994c4.71,0,8.533,3.814,8.533,8.533v187.733
		C256,474.052,252.178,477.867,247.467,477.867z M147.474,290.133c-6.033,0-10.94,4.907-10.94,10.94V449.86
		c0,6.033,4.907,10.94,10.94,10.94h91.46V290.133H147.474z"/>
	<path style="fill:#4D007E;" d="M247.467,366.933h-85.333c-4.71,0-8.533-3.814-8.533-8.533v-34.133c0-4.719,3.823-8.533,8.533-8.533
		h85.333c4.71,0,8.533,3.814,8.533,8.533V358.4C256,363.119,252.178,366.933,247.467,366.933z M170.668,349.867h68.267V332.8
		h-68.267V349.867z"/>
	<path style="fill:#4D007E;" d="M247.467,401.067h-85.333c-4.71,0-8.533-3.814-8.533-8.533s3.823-8.533,8.533-8.533h85.333
		c4.71,0,8.533,3.814,8.533,8.533S252.178,401.067,247.467,401.067z"/>
	<path style="fill:#4D007E;" d="M247.467,435.2h-85.333c-4.71,0-8.533-3.814-8.533-8.533s3.823-8.533,8.533-8.533h85.333
		c4.71,0,8.533,3.814,8.533,8.533S252.178,435.2,247.467,435.2z"/>
	<path style="fill:#4D007E;" d="M426.667,110.933H238.934c-4.71,0-8.533-3.814-8.533-8.533V55.723
		c0-16.606,13.517-30.123,30.123-30.123h21.837c6.349,0,12.416-3.089,16.23-8.269C306.577,6.485,319.369,0,332.8,0
		s26.223,6.485,34.21,17.331c3.814,5.18,9.882,8.269,16.23,8.269h21.837c16.614,0,30.123,13.517,30.123,30.123V102.4
		C435.201,107.119,431.378,110.933,426.667,110.933z M247.467,93.867h170.667V55.723c0-7.194-5.862-13.056-13.056-13.056h-21.837
		c-11.75,0-22.955-5.683-29.969-15.215c-4.864-6.605-12.322-10.385-20.471-10.385s-15.607,3.78-20.463,10.385
		c-7.023,9.532-18.227,15.215-29.978,15.215h-21.837c-7.194,0-13.056,5.862-13.056,13.056L247.467,93.867L247.467,93.867z"/>
	<path style="fill:#4D007E;" d="M332.8,85.333c-14.114,0-25.6-11.486-25.6-25.6s11.486-25.6,25.6-25.6s25.6,11.486,25.6,25.6
		S346.914,85.333,332.8,85.333z M332.8,51.2c-4.702,0-8.533,3.823-8.533,8.533s3.831,8.533,8.533,8.533s8.533-3.823,8.533-8.533
		S337.503,51.2,332.8,51.2z"/>
	<path style="fill:#4D007E;" d="M331.716,264.533c-20.821,0-35.61-6.144-47.94-19.908c-3.14-3.507-2.842-8.909,0.666-12.049
		c3.516-3.149,8.9-2.842,12.049,0.666c8.926,9.967,19.456,14.225,35.226,14.225c28.237,0,51.2-22.963,51.2-51.2
		s-22.963-51.2-51.2-51.2c-15.761,0-26.3,4.258-35.217,14.225c-3.149,3.507-8.533,3.806-12.049,0.666
		c-3.516-3.14-3.806-8.542-0.666-12.049C296.107,134.144,310.886,128,331.716,128c37.641,0,68.267,30.626,68.267,68.267
		S369.357,264.533,331.716,264.533z"/>
	<path style="fill:#4D007E;" d="M332.8,230.4c-4.71,0-8.533-3.814-8.533-8.533v-51.2c0-4.719,3.823-8.533,8.533-8.533
		s8.533,3.814,8.533,8.533v51.2C341.333,226.586,337.51,230.4,332.8,230.4z"/>
	<path style="fill:#4D007E;" d="M358.4,204.8h-51.2c-4.71,0-8.533-3.814-8.533-8.533s3.823-8.533,8.533-8.533h51.2
		c4.71,0,8.533,3.814,8.533,8.533S363.11,204.8,358.4,204.8z"/>
	<path style="fill:#4D007E;" d="M332.8,307.2h-51.2c-4.71,0-8.533-3.814-8.533-8.533s3.823-8.533,8.533-8.533h51.2
		c4.71,0,8.533,3.814,8.533,8.533C341.333,303.386,337.51,307.2,332.8,307.2z"/>
	<path style="fill:#4D007E;" d="M392.533,349.867H281.6c-4.71,0-8.533-3.814-8.533-8.533s3.823-8.533,8.533-8.533h110.933
		c4.71,0,8.533,3.814,8.533,8.533C401.067,346.052,397.244,349.867,392.533,349.867z"/>
	<path style="fill:#4D007E;" d="M426.667,392.533H281.6c-4.71,0-8.533-3.814-8.533-8.533s3.823-8.533,8.533-8.533h145.067
		c4.71,0,8.533,3.814,8.533,8.533C435.201,388.719,431.378,392.533,426.667,392.533z"/>
	<path style="fill:#4D007E;" d="M469.333,452.267H247.467c-4.71,0-8.533-3.814-8.533-8.533V247.467c0-4.719,3.823-8.533,8.533-8.533
		H256v-51.2h-17.067c-4.71,0-8.533-3.814-8.533-8.533v-22.238c0-1.852-1.502-3.362-3.354-3.362h-30.78
		c-4.71,0-8.533-3.814-8.533-8.533V85.333c0-4.719,3.823-8.533,8.533-8.533h42.667c4.71,0,8.533,3.814,8.533,8.533v8.533h170.667
		v-8.533c0-4.719,3.823-8.533,8.533-8.533h42.667c4.71,0,8.533,3.814,8.533,8.533v358.4
		C477.867,448.452,474.044,452.267,469.333,452.267z M256,435.2h204.8V93.867h-25.6v8.533c0,4.719-3.823,8.533-8.533,8.533H238.934
		c-4.71,0-8.533-3.814-8.533-8.533v-8.533h-25.6v42.667h22.246c11.264,0,20.42,9.165,20.42,20.429v13.705h11.307
		c7.885,0,14.293,6.409,14.293,14.293v56.747c0,7.885-6.409,14.293-14.293,14.293H256V435.2z"/>
	<path style="fill:#4D007E;" d="M490.539,486.4H247.467c-4.71,0-8.533-3.814-8.533-8.533v-230.4c0-4.719,3.823-8.533,8.533-8.533
		H256v-51.2h-17.067c-4.71,0-8.533-3.814-8.533-8.533v-22.238c0-1.852-1.502-3.362-3.354-3.362h-64.913
		c-4.71,0-8.533-3.814-8.533-8.533v-80.94c0-11.836,9.626-21.461,21.461-21.461h63.872c4.71,0,8.533,3.814,8.533,8.533v42.667
		h170.667V51.2c0-4.719,3.823-8.533,8.533-8.533h63.872c11.836,0,21.461,9.626,21.461,21.461v400.819
		C512,476.774,502.374,486.4,490.539,486.4z M256,469.333h234.539c2.423,0,4.395-1.963,4.395-4.395V64.128
		c0-2.432-1.971-4.395-4.395-4.395h-55.339V102.4c0,4.719-3.823,8.533-8.533,8.533H238.934c-4.71,0-8.533-3.814-8.533-8.533V59.733
		h-55.339c-2.423,0-4.395,1.963-4.395,4.395v72.405h56.38c11.264,0,20.42,9.165,20.42,20.429v13.705h11.307
		c7.885,0,14.293,6.409,14.293,14.293v56.747c0,7.885-6.409,14.293-14.293,14.293H256V469.333z"/>
</g>
<g>
</g>
<g>
</g>
<g>
</g>
<g>
</g>
<g>
</g>
<g>
</g>
<g>
</g>
<g>
</g>
<g>
</g>
<g>
</g>
<g>
</g>
<g>
</g>
<g>
</g>
<g>
</g>
<g>
</g>
</svg>
