<svg enable-background="new 0 0 60 60" height="512" viewBox="0 0 60 60" width="512" xmlns="http://www.w3.org/2000/svg"><path d="m4 14h14v14h-14z" fill="#afb6bb"/><path d="m42 13h14v15h-14z" fill="#afb6bb"/><path d="m3 30v28.985h54v-28.985h-28z" fill="#e7eced"/><path d="m16 3h28v25h-28z" fill="#e7eced"/><path d="m1 26.985h58v4h-58z" fill="#25ae88"/><path d="m14 1h32v4h-32z" fill="#25ae88"/><path d="m1 10.985h15v4h-15z" fill="#25ae88"/><path d="m44 11h15v4h-15z" fill="#25ae88"/><path d="m22 35.985h16v23h-16z" fill="#ebba16"/><path d="m7 35.985h10v12h-10z" fill="#c6e2f7"/><path d="m36 13.985h-4v-4h-4v4h-4v4h4v4h4v-4h4z" fill="#dd352e"/><path d="m7 35.985h10v4h-10z" fill="#7383bf"/><path d="m43 35.985h10v12h-10z" fill="#c6e2f7"/><path d="m43 35.985h10v4h-10z" fill="#7383bf"/><g fill="#4d007e"><path d="m59 32h-58c-.552 0-1-.448-1-1v-4c0-.552.448-1 1-1h58c.552 0 1 .448 1 1v4c0 .552-.448 1-1 1zm-57-2h56v-2h-56z"/><path d="m46 6h-32c-.552 0-1-.448-1-1v-4c0-.552.448-1 1-1h32c.552 0 1 .448 1 1v4c0 .552-.448 1-1 1zm-31-2h30v-2h-30z"/><path d="m16 16h-15c-.552 0-1-.448-1-1v-4c0-.552.448-1 1-1h15c.552 0 1 .448 1 1v4c0 .552-.448 1-1 1zm-14-2h13v-2h-13z"/><path d="m59 16h-15c-.552 0-1-.448-1-1v-4c0-.552.448-1 1-1h15c.552 0 1 .448 1 1v4c0 .552-.448 1-1 1zm-14-2h13v-2h-13z"/><path d="m38 60h-16c-.552 0-1-.448-1-1v-23c0-.552.448-1 1-1h16c.552 0 1 .448 1 1v23c0 .552-.448 1-1 1zm-15-2h14v-21h-14z"/><path d="m24 41h-2c-.552 0-1-.448-1-1s.448-1 1-1h2c.552 0 1 .448 1 1s-.448 1-1 1z"/><path d="m24 56h-2c-.552 0-1-.448-1-1s.448-1 1-1h2c.552 0 1 .448 1 1s-.448 1-1 1z"/><path d="m38 41h-2c-.552 0-1-.448-1-1s.448-1 1-1h2c.552 0 1 .448 1 1s-.448 1-1 1z"/><path d="m38 56h-2c-.552 0-1-.448-1-1s.448-1 1-1h2c.552 0 1 .448 1 1s-.448 1-1 1z"/><path d="m30 60c-.552 0-1-.448-1-1v-23c0-.552.448-1 1-1s1 .448 1 1v23c0 .552-.448 1-1 1z"/><path d="m26 50c-.552 0-1-.448-1-1v-2c0-.552.448-1 1-1s1 .448 1 1v2c0 .552-.448 1-1 1z"/><path d="m34 50c-.552 0-1-.448-1-1v-2c0-.552.448-1 1-1s1 .448 1 1v2c0 .552-.448 1-1 1z"/><path d="m17 49h-10c-.552 0-1-.448-1-1v-12c0-.552.448-1 1-1h10c.552 0 1 .448 1 1v12c0 .552-.448 1-1 1zm-9-2h8v-10h-8z"/><path d="m17 41h-10c-.552 0-1-.448-1-1s.448-1 1-1h10c.552 0 1 .448 1 1s-.448 1-1 1z"/><path d="m12 44c-.552 0-1-.448-1-1v-3c0-.552.448-1 1-1s1 .448 1 1v3c0 .552-.448 1-1 1z"/><path d="m53 49h-10c-.552 0-1-.448-1-1v-12c0-.552.448-1 1-1h10c.552 0 1 .448 1 1v12c0 .552-.448 1-1 1zm-9-2h8v-10h-8z"/><path d="m53 41h-10c-.552 0-1-.448-1-1s.448-1 1-1h10c.552 0 1 .448 1 1s-.448 1-1 1z"/><path d="m48 44c-.552 0-1-.448-1-1v-3c0-.552.448-1 1-1s1 .448 1 1v3c0 .552-.448 1-1 1z"/><path d="m32 23h-4c-.552 0-1-.448-1-1v-3h-3c-.552 0-1-.448-1-1v-4c0-.552.448-1 1-1h3v-3c0-.552.448-1 1-1h4c.552 0 1 .448 1 1v3h3c.552 0 1 .448 1 1v4c0 .552-.448 1-1 1h-3v3c0 .552-.448 1-1 1zm-3-2h2v-3c0-.552.448-1 1-1h3v-2h-3c-.552 0-1-.448-1-1v-3h-2v3c0 .552-.448 1-1 1h-3v2h3c.552 0 1 .448 1 1z"/><path d="m57 60h-54c-.552 0-1-.448-1-1v-28c0-.552.448-1 1-1h54c.552 0 1 .448 1 1v28c0 .552-.448 1-1 1zm-53-2h52v-26h-52z"/><path d="m44 28h-28c-.552 0-1-.448-1-1v-22c0-.552.448-1 1-1h28c.552 0 1 .448 1 1v22c0 .552-.448 1-1 1zm-27-2h26v-20h-26z"/><path d="m16 28h-12c-.552 0-1-.448-1-1v-12c0-.552.448-1 1-1h12c.552 0 1 .448 1 1v12c0 .552-.448 1-1 1zm-11-2h10v-10h-10z"/><path d="m56 28h-12c-.552 0-1-.448-1-1v-12c0-.552.448-1 1-1h12c.552 0 1 .448 1 1v12c0 .552-.448 1-1 1zm-11-2h10v-10h-10z"/><path d="m12 20h-4c-.552 0-1-.448-1-1s.448-1 1-1h4c.552 0 1 .448 1 1s-.448 1-1 1z"/><path d="m12 24h-4c-.552 0-1-.448-1-1s.448-1 1-1h4c.552 0 1 .448 1 1s-.448 1-1 1z"/><path d="m52 20h-4c-.552 0-1-.448-1-1s.448-1 1-1h4c.552 0 1 .448 1 1s-.448 1-1 1z"/><path d="m52 24h-4c-.552 0-1-.448-1-1s.448-1 1-1h4c.552 0 1 .448 1 1s-.448 1-1 1z"/></g></svg>